<svg width="128" height="128" viewBox="0 0 128 128" fill="none" xmlns="http://www.w3.org/2000/svg">
<g clip-path="url(#clip0_1_2)">
<rect width="128" height="128" fill="url(#paint0_linear_1_2)"/>
<g filter="url(#filter0_dddddd_1_2)">
<path d="M36 44C36 39.5817 39.5817 36 44 36H84C88.4183 36 92 39.5817 92 44V48C92 50.2091 90.2091 52 88 52H40C37.7909 52 36 50.2091 36 48V44Z" fill="url(#paint1_linear_1_2)"/>
<path d="M36 60C36 57.7909 37.7909 56 40 56H48C50.2091 56 52 57.7909 52 60V68C52 70.2091 50.2091 72 48 72H40C37.7909 72 36 70.2091 36 68V60Z" fill="url(#paint2_linear_1_2)"/>
<path d="M56 60C56 57.7909 57.7909 56 60 56H68C70.2091 56 72 57.7909 72 60V68C72 70.2091 70.2091 72 68 72H60C57.7909 72 56 70.2091 56 68V60Z" fill="url(#paint3_linear_1_2)"/>
<path d="M76 60C76 57.7909 77.7909 56 80 56H88C90.2091 56 92 57.7909 92 60V68C92 70.2091 90.2091 72 88 72H80C77.7909 72 76 70.2091 76 68V60Z" fill="url(#paint4_linear_1_2)"/>
<path d="M36 80C36 77.7909 37.7909 76 40 76H48C50.2091 76 52 77.7909 52 80V88C52 90.2091 50.2091 92 48 92H44C39.5817 92 36 88.4183 36 84V80Z" fill="url(#paint5_linear_1_2)"/>
<path d="M56 80C56 77.7909 57.7909 76 60 76H68C70.2091 76 72 77.7909 72 80V88C72 90.2091 70.2091 92 68 92H60C57.7909 92 56 90.2091 56 88V80Z" fill="url(#paint6_linear_1_2)"/>
<path d="M76 80C76 77.7909 77.7909 76 80 76H88C90.2091 76 92 77.7909 92 80V84C92 88.4183 88.4183 92 84 92H80C77.7909 92 76 90.2091 76 88V80Z" fill="url(#paint7_linear_1_2)"/>
</g>
</g>
<defs>
<filter id="filter0_dddddd_1_2" x="-22" y="36" width="172" height="181" filterUnits="userSpaceOnUse" color-interpolation-filters="sRGB">
<feFlood flood-opacity="0" result="BackgroundImageFix"/>
<feColorMatrix in="SourceAlpha" type="matrix" values="0 0 0 0 0 0 0 0 0 0 0 0 0 0 0 0 0 0 127 0" result="hardAlpha"/>
<feOffset dy="1.85406"/>
<feGaussianBlur stdDeviation="0.802504"/>
<feColorMatrix type="matrix" values="0 0 0 0 0.317647 0 0 0 0 0 0 0 0 0 0.494118 0 0 0 0.061852 0"/>
<feBlend mode="normal" in2="BackgroundImageFix" result="effect1_dropShadow_1_2"/>
<feColorMatrix in="SourceAlpha" type="matrix" values="0 0 0 0 0 0 0 0 0 0 0 0 0 0 0 0 0 0 127 0" result="hardAlpha"/>
<feOffset dy="4.45557"/>
<feGaussianBlur stdDeviation="1.92853"/>
<feColorMatrix type="matrix" values="0 0 0 0 0.317647 0 0 0 0 0 0 0 0 0 0.494118 0 0 0 0.0888564 0"/>
<feBlend mode="normal" in2="effect1_dropShadow_1_2" result="effect2_dropShadow_1_2"/>
<feColorMatrix in="SourceAlpha" type="matrix" values="0 0 0 0 0 0 0 0 0 0 0 0 0 0 0 0 0 0 127 0" result="hardAlpha"/>
<feOffset dy="8.38944"/>
<feGaussianBlur stdDeviation="3.63125"/>
<feColorMatrix type="matrix" values="0 0 0 0 0.317647 0 0 0 0 0 0 0 0 0 0.494118 0 0 0 0.11 0"/>
<feBlend mode="normal" in2="effect2_dropShadow_1_2" result="effect3_dropShadow_1_2"/>
<feColorMatrix in="SourceAlpha" type="matrix" values="0 0 0 0 0 0 0 0 0 0 0 0 0 0 0 0 0 0 127 0" result="hardAlpha"/>
<feOffset dy="14.9653"/>
<feGaussianBlur stdDeviation="6.47753"/>
<feColorMatrix type="matrix" values="0 0 0 0 0.317647 0 0 0 0 0 0 0 0 0 0.494118 0 0 0 0.131144 0"/>
<feBlend mode="normal" in2="effect3_dropShadow_1_2" result="effect4_dropShadow_1_2"/>
<feColorMatrix in="SourceAlpha" type="matrix" values="0 0 0 0 0 0 0 0 0 0 0 0 0 0 0 0 0 0 127 0" result="hardAlpha"/>
<feOffset dy="27.991"/>
<feGaussianBlur stdDeviation="12.1155"/>
<feColorMatrix type="matrix" values="0 0 0 0 0.317647 0 0 0 0 0 0 0 0 0 0.494118 0 0 0 0.158148 0"/>
<feBlend mode="normal" in2="effect4_dropShadow_1_2" result="effect5_dropShadow_1_2"/>
<feColorMatrix in="SourceAlpha" type="matrix" values="0 0 0 0 0 0 0 0 0 0 0 0 0 0 0 0 0 0 127 0" result="hardAlpha"/>
<feOffset dy="67"/>
<feGaussianBlur stdDeviation="29"/>
<feColorMatrix type="matrix" values="0 0 0 0 0.317647 0 0 0 0 0 0 0 0 0 0.494118 0 0 0 0.22 0"/>
<feBlend mode="normal" in2="effect5_dropShadow_1_2" result="effect6_dropShadow_1_2"/>
<feBlend mode="normal" in="SourceGraphic" in2="effect6_dropShadow_1_2" result="shape"/>
</filter>
<linearGradient id="paint0_linear_1_2" x1="20" y1="-5.58794e-07" x2="112" y2="128" gradientUnits="userSpaceOnUse">
<stop stop-color="#E43FFF"/>
<stop offset="1" stop-color="#933FFF"/>
</linearGradient>
<linearGradient id="paint1_linear_1_2" x1="50.4118" y1="36" x2="53.2681" y2="55.7045" gradientUnits="userSpaceOnUse">
<stop stop-color="#FFD5F6"/>
<stop offset="1" stop-color="#E18DFF"/>
</linearGradient>
<linearGradient id="paint2_linear_1_2" x1="40.1176" y1="56" x2="48.2353" y2="72" gradientUnits="userSpaceOnUse">
<stop stop-color="#FFD5F6"/>
<stop offset="1" stop-color="#E18DFF"/>
</linearGradient>
<linearGradient id="paint3_linear_1_2" x1="60.1176" y1="56" x2="68.2353" y2="72" gradientUnits="userSpaceOnUse">
<stop stop-color="#FFD5F6"/>
<stop offset="1" stop-color="#E18DFF"/>
</linearGradient>
<linearGradient id="paint4_linear_1_2" x1="80.1176" y1="56" x2="88.2353" y2="72" gradientUnits="userSpaceOnUse">
<stop stop-color="#FFD5F6"/>
<stop offset="1" stop-color="#E18DFF"/>
</linearGradient>
<linearGradient id="paint5_linear_1_2" x1="40.1176" y1="76" x2="48.2353" y2="92" gradientUnits="userSpaceOnUse">
<stop stop-color="#FFD5F6"/>
<stop offset="1" stop-color="#E18DFF"/>
</linearGradient>
<linearGradient id="paint6_linear_1_2" x1="60.1176" y1="76" x2="68.2353" y2="92" gradientUnits="userSpaceOnUse">
<stop stop-color="#FFD5F6"/>
<stop offset="1" stop-color="#E18DFF"/>
</linearGradient>
<linearGradient id="paint7_linear_1_2" x1="80.1176" y1="76" x2="88.2353" y2="92" gradientUnits="userSpaceOnUse">
<stop stop-color="#FFD5F6"/>
<stop offset="1" stop-color="#E18DFF"/>
</linearGradient>
<clipPath id="clip0_1_2">
<rect width="128" height="128" fill="white"/>
</clipPath>
</defs>
</svg>
