<svg width="128" height="128" viewBox="0 0 128 128" fill="none" xmlns="http://www.w3.org/2000/svg">
<g clip-path="url(#clip0_1_69)">
<path d="M0 4.92308C0 2.20414 2.20414 0 4.92308 0H123.077C125.796 0 128 2.20414 128 4.92308V24.6154C128 27.3343 125.796 29.5385 123.077 29.5385H4.92308C2.20414 29.5385 0 27.3343 0 24.6154V4.92308Z" fill="white"/>
<path d="M98.4615 54.1538C98.4615 51.4349 100.666 49.2308 103.385 49.2308H123.077C125.796 49.2308 128 51.4349 128 54.1538V73.8462C128 76.5651 125.796 78.7692 123.077 78.7692H103.385C100.666 78.7692 98.4615 76.5651 98.4615 73.8462V54.1538Z" fill="white"/>
<path d="M98.4615 103.385C98.4615 100.666 100.666 98.4615 103.385 98.4615H123.077C125.796 98.4615 128 100.666 128 103.385V123.077C128 125.796 125.796 128 123.077 128H103.385C100.666 128 98.4615 125.796 98.4615 123.077V103.385Z" fill="white"/>
<path d="M0 103.385C0 100.666 2.20414 98.4615 4.92308 98.4615H24.6154C27.3343 98.4615 29.5385 100.666 29.5385 103.385V123.077C29.5385 125.796 27.3343 128 24.6154 128H4.92308C2.20414 128 0 125.796 0 123.077V103.385Z" fill="white"/>
<path d="M78.7692 23.3846H49.2308V123.077C49.2308 125.796 51.4349 128 54.1538 128H73.8462C76.5651 128 78.7692 125.796 78.7692 123.077V23.3846Z" fill="white"/>
</g>
<defs>
<clipPath id="clip0_1_69">
<rect width="128" height="128" fill="white"/>
</clipPath>
</defs>
</svg>
